<mxfile host="65bd71144e" pages="1">
    <diagram id="wpIUDCgS-jAy4nphHHjV" name="Page-1">
        <mxGraphModel dx="1056" dy="3940" grid="1" gridSize="10" guides="1" tooltips="1" connect="1" arrows="1" fold="1" page="1" pageScale="1" pageWidth="827" pageHeight="1169" math="0" shadow="0">
            <root>
                <mxCell id="0"/>
                <mxCell id="1" parent="0"/>
                <mxCell id="2" value="Text" style="text;html=1;resizable=0;points=[];autosize=1;align=left;verticalAlign=top;spacingTop=-4;" parent="1" vertex="1">
                    <mxGeometry x="161" y="-180" width="40" height="20" as="geometry"/>
                </mxCell>
                <mxCell id="4" value="&lt;div style=&quot;color: rgb(212 , 212 , 212) ; background-color: rgb(30 , 30 , 30) ; font-family: &amp;#34;consolas&amp;#34; , &amp;#34;courier new&amp;#34; , monospace ; font-size: 14px ; line-height: 19px ; white-space: pre&quot;&gt;&lt;div&gt;&lt;span style=&quot;color: #569cd6 ; font-weight: bold&quot;&gt;# &amp;nbsp;三. html,css,js 的解析流程。&lt;/span&gt;&lt;/div&gt;&lt;div&gt;&amp;nbsp; &amp;nbsp; &lt;/div&gt;&lt;div&gt;&amp;nbsp; &amp;nbsp;02.浏览器的解析流程.drawio&lt;/div&gt;&lt;br&gt;&lt;/div&gt;" style="text;html=1;resizable=0;points=[];autosize=1;align=left;verticalAlign=top;spacingTop=-4;" parent="1" vertex="1">
                    <mxGeometry x="36" y="-2320" width="250" height="80" as="geometry"/>
                </mxCell>
                <mxCell id="5" value="&lt;b&gt;&lt;font style=&quot;font-size: 18px&quot;&gt;html 和css 的解析流程：&lt;/font&gt;&lt;/b&gt;" style="text;html=1;resizable=0;points=[];autosize=1;align=left;verticalAlign=top;spacingTop=-4;strokeColor=#FFFFFF;" parent="1" vertex="1">
                    <mxGeometry x="36" y="-2220" width="220" height="20" as="geometry"/>
                </mxCell>
                <mxCell id="7" value="&lt;font style=&quot;font-size: 18px&quot;&gt;浏览器解析 js代码的基本过程&lt;/font&gt;" style="text;html=1;resizable=0;points=[];autosize=1;align=left;verticalAlign=top;spacingTop=-4;" parent="1" vertex="1">
                    <mxGeometry x="41" y="-1840" width="260" height="30" as="geometry"/>
                </mxCell>
                <mxCell id="9" value="&lt;div&gt;&lt;div&gt;&lt;br&gt;&lt;/div&gt;&lt;/div&gt;" style="text;html=1;resizable=0;points=[];autosize=1;align=left;verticalAlign=top;spacingTop=-4;" parent="1" vertex="1">
                    <mxGeometry x="284" y="-2451" width="20" height="20" as="geometry"/>
                </mxCell>
                <mxCell id="15" value="" style="edgeStyle=none;html=1;" parent="1" source="13" target="14" edge="1">
                    <mxGeometry relative="1" as="geometry"/>
                </mxCell>
                <mxCell id="13" value="HTML" style="whiteSpace=wrap;html=1;fillColor=#999999;" parent="1" vertex="1">
                    <mxGeometry x="36" y="-2100" width="120" height="40" as="geometry"/>
                </mxCell>
                <mxCell id="26" value="" style="edgeStyle=none;html=1;fontFamily=Helvetica;fontSize=12;fontColor=default;" parent="1" source="14" target="25" edge="1">
                    <mxGeometry relative="1" as="geometry"/>
                </mxCell>
                <mxCell id="14" value="&lt;font face=&quot;Comic Sans MS&quot;&gt;Parse htm&lt;/font&gt;l" style="whiteSpace=wrap;html=1;fillColor=#B3B3B3;" parent="1" vertex="1">
                    <mxGeometry x="200" y="-2100" width="119" height="40" as="geometry"/>
                </mxCell>
                <mxCell id="24" value="" style="edgeStyle=none;html=1;fontFamily=Helvetica;fontSize=12;fontColor=default;" parent="1" source="16" target="23" edge="1">
                    <mxGeometry relative="1" as="geometry"/>
                </mxCell>
                <mxCell id="16" value="CSS" style="whiteSpace=wrap;html=1;fillColor=#999999;" parent="1" vertex="1">
                    <mxGeometry x="40" y="-1960" width="120" height="40" as="geometry"/>
                </mxCell>
                <mxCell id="22" value="" style="edgeStyle=none;html=1;" parent="1" source="18" target="14" edge="1">
                    <mxGeometry relative="1" as="geometry"/>
                </mxCell>
                <mxCell id="18" value="DOM" style="whiteSpace=wrap;html=1;strokeColor=#FFFFFF;fillColor=#B3B3B3;" parent="1" vertex="1">
                    <mxGeometry x="200" y="-2160" width="120" height="30" as="geometry"/>
                </mxCell>
                <mxCell id="28" value="" style="edgeStyle=none;html=1;fontFamily=Helvetica;fontSize=12;fontColor=default;" parent="1" source="23" target="27" edge="1">
                    <mxGeometry relative="1" as="geometry"/>
                </mxCell>
                <mxCell id="23" value="Parse css" style="whiteSpace=wrap;html=1;fillColor=#B3B3B3;" parent="1" vertex="1">
                    <mxGeometry x="210" y="-1960" width="120" height="40" as="geometry"/>
                </mxCell>
                <mxCell id="30" value="" style="edgeStyle=none;html=1;fontFamily=Helvetica;fontSize=12;fontColor=default;" parent="1" source="25" target="29" edge="1">
                    <mxGeometry relative="1" as="geometry"/>
                </mxCell>
                <mxCell id="76" style="edgeStyle=none;html=1;exitX=1;exitY=0.5;exitDx=0;exitDy=0;entryX=0.395;entryY=0.892;entryDx=0;entryDy=0;entryPerimeter=0;fillColor=#FF0000;" edge="1" parent="1" source="25" target="74">
                    <mxGeometry relative="1" as="geometry"/>
                </mxCell>
                <mxCell id="25" value="Dom Tree" style="whiteSpace=wrap;html=1;fillColor=#B3B3B3;" parent="1" vertex="1">
                    <mxGeometry x="400" y="-2100" width="119" height="40" as="geometry"/>
                </mxCell>
                <mxCell id="31" value="" style="edgeStyle=none;html=1;fontFamily=Helvetica;fontSize=12;fontColor=default;" parent="1" source="27" target="29" edge="1">
                    <mxGeometry relative="1" as="geometry"/>
                </mxCell>
                <mxCell id="27" value="style&amp;nbsp; rules" style="whiteSpace=wrap;html=1;fillColor=#B3B3B3;" parent="1" vertex="1">
                    <mxGeometry x="399" y="-1960" width="120" height="40" as="geometry"/>
                </mxCell>
                <mxCell id="34" value="" style="edgeStyle=none;html=1;fontFamily=Helvetica;fontSize=12;fontColor=default;" parent="1" source="29" target="33" edge="1">
                    <mxGeometry relative="1" as="geometry"/>
                </mxCell>
                <mxCell id="29" value="Attachment" style="whiteSpace=wrap;html=1;fillColor=#999999;" parent="1" vertex="1">
                    <mxGeometry x="400" y="-2030" width="119" height="40" as="geometry"/>
                </mxCell>
                <mxCell id="36" value="" style="edgeStyle=none;html=1;fontFamily=Helvetica;fontSize=12;fontColor=default;" parent="1" source="33" target="35" edge="1">
                    <mxGeometry relative="1" as="geometry"/>
                </mxCell>
                <mxCell id="40" value="" style="edgeStyle=none;html=1;fontFamily=Helvetica;fontSize=12;fontColor=default;" parent="1" source="33" edge="1">
                    <mxGeometry relative="1" as="geometry">
                        <mxPoint x="659" y="-2077" as="targetPoint"/>
                        <Array as="points">
                            <mxPoint x="659" y="-2030"/>
                        </Array>
                    </mxGeometry>
                </mxCell>
                <mxCell id="33" value="Render Dom" style="whiteSpace=wrap;html=1;fontStyle=1;fillColor=#999999;" parent="1" vertex="1">
                    <mxGeometry x="599" y="-2030" width="119" height="40" as="geometry"/>
                </mxCell>
                <mxCell id="38" value="" style="edgeStyle=none;html=1;fontFamily=Helvetica;fontSize=12;fontColor=default;" parent="1" source="35" target="37" edge="1">
                    <mxGeometry relative="1" as="geometry"/>
                </mxCell>
                <mxCell id="35" value="painting" style="whiteSpace=wrap;html=1;fontStyle=1;fillColor=#999999;" parent="1" vertex="1">
                    <mxGeometry x="798" y="-2030" width="102" height="40" as="geometry"/>
                </mxCell>
                <mxCell id="37" value="Display" style="whiteSpace=wrap;html=1;fontStyle=1;fillColor=#808080;" parent="1" vertex="1">
                    <mxGeometry x="970" y="-2030" width="70" height="40" as="geometry"/>
                </mxCell>
                <mxCell id="41" style="edgeStyle=none;html=1;fontFamily=Helvetica;fontSize=12;fontColor=default;entryX=0.58;entryY=-0.117;entryDx=0;entryDy=0;entryPerimeter=0;exitX=0.591;exitY=1.05;exitDx=0;exitDy=0;exitPerimeter=0;" parent="1" source="39" target="33" edge="1">
                    <mxGeometry relative="1" as="geometry">
                        <mxPoint x="680" y="-2060" as="targetPoint"/>
                    </mxGeometry>
                </mxCell>
                <mxCell id="39" value="layout" style="whiteSpace=wrap;html=1;fontStyle=1;fillColor=#B3B3B3;" parent="1" vertex="1">
                    <mxGeometry x="599" y="-2120" width="119" height="40" as="geometry"/>
                </mxCell>
                <mxCell id="49" value="" style="edgeStyle=none;html=1;fontSize=18;fillColor=#B3B3B3;" parent="1" source="47" target="48" edge="1">
                    <mxGeometry relative="1" as="geometry"/>
                </mxCell>
                <mxCell id="47" value="JS" style="rounded=1;whiteSpace=wrap;html=1;fontSize=18;strokeColor=#0000FF;fillColor=#B3B3B3;" parent="1" vertex="1">
                    <mxGeometry x="36" y="-1770" width="120" height="47" as="geometry"/>
                </mxCell>
                <mxCell id="51" value="" style="edgeStyle=none;html=1;fontSize=18;fillColor=#B3B3B3;" parent="1" source="48" target="50" edge="1">
                    <mxGeometry relative="1" as="geometry"/>
                </mxCell>
                <mxCell id="48" value="Parse" style="rounded=1;whiteSpace=wrap;html=1;fontSize=18;strokeColor=#0000FF;fillColor=#B3B3B3;" parent="1" vertex="1">
                    <mxGeometry x="199" y="-1770" width="120" height="47" as="geometry"/>
                </mxCell>
                <mxCell id="53" value="" style="edgeStyle=none;html=1;fontSize=18;fillColor=#B3B3B3;" parent="1" source="50" target="52" edge="1">
                    <mxGeometry relative="1" as="geometry"/>
                </mxCell>
                <mxCell id="50" value="AST 抽象语法树" style="rounded=1;whiteSpace=wrap;html=1;fontSize=18;strokeColor=#0000FF;fillColor=#B3B3B3;" parent="1" vertex="1">
                    <mxGeometry x="360" y="-1770" width="120" height="47" as="geometry"/>
                </mxCell>
                <mxCell id="55" value="" style="edgeStyle=none;html=1;fontSize=18;fillColor=#B3B3B3;" parent="1" source="52" target="54" edge="1">
                    <mxGeometry relative="1" as="geometry"/>
                </mxCell>
                <mxCell id="64" value="" style="edgeStyle=none;html=1;fontSize=10;fillColor=#B3B3B3;" parent="1" source="52" target="63" edge="1">
                    <mxGeometry relative="1" as="geometry"/>
                </mxCell>
                <mxCell id="52" value="Ignition" style="rounded=1;whiteSpace=wrap;html=1;fontSize=18;strokeColor=#0000FF;fillColor=#B3B3B3;" parent="1" vertex="1">
                    <mxGeometry x="520" y="-1770" width="120" height="47" as="geometry"/>
                </mxCell>
                <mxCell id="57" value="" style="edgeStyle=none;html=1;fontSize=18;fillColor=#B3B3B3;" parent="1" source="54" target="56" edge="1">
                    <mxGeometry relative="1" as="geometry"/>
                </mxCell>
                <mxCell id="66" style="edgeStyle=none;html=1;entryX=0.589;entryY=-0.021;entryDx=0;entryDy=0;entryPerimeter=0;fontSize=10;strokeColor=#FF3333;fillColor=#B3B3B3;" parent="1" source="54" target="63" edge="1">
                    <mxGeometry relative="1" as="geometry"/>
                </mxCell>
                <mxCell id="54" value="byteCode 字节码" style="rounded=1;whiteSpace=wrap;html=1;fontSize=18;strokeColor=#0000FF;fillColor=#B3B3B3;" parent="1" vertex="1">
                    <mxGeometry x="720" y="-1770" width="120" height="47" as="geometry"/>
                </mxCell>
                <mxCell id="56" value="运行" style="shape=singleArrow;whiteSpace=wrap;html=1;arrowWidth=0.4;arrowSize=0.4;fontSize=18;strokeColor=#0000FF;rounded=1;fillColor=#B3B3B3;" parent="1" vertex="1">
                    <mxGeometry x="940" y="-1776.5" width="80" height="60" as="geometry"/>
                </mxCell>
                <mxCell id="68" value="" style="edgeStyle=none;html=1;fontSize=10;fillColor=#B3B3B3;" parent="1" source="63" target="67" edge="1">
                    <mxGeometry relative="1" as="geometry"/>
                </mxCell>
                <mxCell id="63" value="turboFan" style="rounded=1;whiteSpace=wrap;html=1;fontSize=18;strokeColor=#0000FF;fillColor=#B3B3B3;" parent="1" vertex="1">
                    <mxGeometry x="520" y="-1643" width="120" height="47" as="geometry"/>
                </mxCell>
                <mxCell id="65" value="收集信息，比如类型信息" style="text;html=1;align=center;verticalAlign=middle;resizable=0;points=[];autosize=1;strokeColor=none;fillColor=#B3B3B3;fontSize=10;" parent="1" vertex="1">
                    <mxGeometry x="450" y="-1690" width="130" height="20" as="geometry"/>
                </mxCell>
                <mxCell id="69" value="" style="edgeStyle=none;html=1;fontSize=10;fillColor=#B3B3B3;" parent="1" source="67" target="54" edge="1">
                    <mxGeometry relative="1" as="geometry"/>
                </mxCell>
                <mxCell id="71" value="" style="edgeStyle=none;html=1;fontSize=10;fillColor=#B3B3B3;" parent="1" source="67" target="70" edge="1">
                    <mxGeometry relative="1" as="geometry"/>
                </mxCell>
                <mxCell id="67" value="优化后的机器码" style="rounded=1;whiteSpace=wrap;html=1;fontSize=18;strokeColor=#0000FF;fillColor=#B3B3B3;" parent="1" vertex="1">
                    <mxGeometry x="720" y="-1643" width="120" height="47" as="geometry"/>
                </mxCell>
                <mxCell id="70" value="运行" style="shape=singleArrow;whiteSpace=wrap;html=1;arrowWidth=0.4;arrowSize=0.4;fontSize=18;strokeColor=#0000FF;rounded=1;fillColor=#B3B3B3;" parent="1" vertex="1">
                    <mxGeometry x="940" y="-1649.5" width="80" height="60" as="geometry"/>
                </mxCell>
                <mxCell id="72" value="进行布局或者回流" style="text;html=1;align=center;verticalAlign=middle;resizable=0;points=[];autosize=1;strokeColor=none;fillColor=none;" parent="1" vertex="1">
                    <mxGeometry x="670" y="-2060" width="110" height="20" as="geometry"/>
                </mxCell>
                <mxCell id="73" value="绘制或者重绘" style="text;html=1;align=center;verticalAlign=middle;resizable=0;points=[];autosize=1;strokeColor=none;fillColor=none;" parent="1" vertex="1">
                    <mxGeometry x="830" y="-2060" width="90" height="20" as="geometry"/>
                </mxCell>
                <mxCell id="74" value="当domTree 形成后就说明HTML文档已经被完全加载和解析。&lt;br&gt;就会调用&amp;nbsp; DomContentloaded 触发JS事件，确保页面中的&lt;b&gt;所有元素已经被正确的加载和解析&lt;/b&gt;。" style="ellipse;shape=cloud;whiteSpace=wrap;html=1;" vertex="1" parent="1">
                    <mxGeometry x="390" y="-2360" width="820" height="110" as="geometry"/>
                </mxCell>
            </root>
        </mxGraphModel>
    </diagram>
</mxfile>